<svg width="128" height="20" viewBox="0 0 128 20" fill="none" xmlns="http://www.w3.org/2000/svg">
<path d="M4.34269 5.15998H6.87069L11.2227 16.6H8.53469L7.71869 14.072H3.47869L2.66269 16.6H0.0226875L4.34269 5.15998ZM7.12669 12.152L5.62269 7.43198H5.59069L4.08669 12.152H7.12669ZM12.2037 5.15998H17.4677C18.6517 5.15998 19.585 5.45864 20.2677 6.05597C20.9504 6.65331 21.2917 7.53864 21.2917 8.71198C21.2917 9.88531 20.9504 10.776 20.2677 11.384C19.585 11.9813 18.6517 12.28 17.4677 12.28H14.6677V16.6H12.2037V5.15998ZM17.0197 10.232C17.5957 10.232 18.0277 10.1146 18.3157 9.87998C18.6144 9.63464 18.7637 9.24531 18.7637 8.71198C18.7637 7.70931 18.1824 7.20798 17.0197 7.20798H14.6677V10.232H17.0197ZM25.0792 7.20798H21.6072V5.15998H30.9992V7.20798H27.5432V16.6H25.0792V7.20798ZM32.2662 5.15998H40.7302V7.20798H34.7302V9.68798H39.9302V11.736H34.7302V14.552H40.8422V16.6H32.2662V5.15998ZM42.9192 16.84C42.6312 16.84 42.3432 16.824 42.0552 16.792C41.7672 16.76 41.5645 16.712 41.4472 16.648V14.536C41.7459 14.6426 42.0659 14.696 42.4072 14.696C42.7485 14.696 43.0045 14.5893 43.1752 14.376C43.3459 14.152 43.4419 13.7786 43.4632 13.256L43.9112 5.15998H51.4952V16.6H49.0312V7.20798H46.1032L45.7512 13.464C45.6872 14.6906 45.4045 15.56 44.9032 16.072C44.4125 16.584 43.7512 16.84 42.9192 16.84ZM53.5474 5.15998H56.0114V8.91998H58.3474C59.5848 8.91998 60.5661 9.26131 61.2914 9.94398C62.0274 10.6266 62.3954 11.5493 62.3954 12.712C62.3954 13.9173 62.0168 14.8666 61.2594 15.56C60.5021 16.2533 59.4781 16.6 58.1874 16.6H53.5474V5.15998ZM58.1554 14.552C58.6888 14.552 59.1048 14.392 59.4034 14.072C59.7128 13.7413 59.8674 13.288 59.8674 12.712C59.8674 12.1893 59.7234 11.768 59.4354 11.448C59.1581 11.128 58.7794 10.968 58.2994 10.968H56.0114V14.552H58.1554ZM66.5981 5.15998H75.2701V16.6H73.8301V6.43997H68.0381V16.6H66.5981V5.15998ZM77.6449 5.15998H82.1889C83.3089 5.15998 84.2049 5.43198 84.8769 5.97598C85.5596 6.50931 85.9009 7.34664 85.9009 8.48798C85.9009 9.62931 85.5596 10.472 84.8769 11.016C84.2049 11.5493 83.3089 11.816 82.1889 11.816H79.0849V16.6H77.6449V5.15998ZM82.2849 10.536C82.9996 10.536 83.5276 10.3706 83.8689 10.04C84.2209 9.69864 84.3969 9.18131 84.3969 8.48798C84.3969 7.79464 84.2209 7.28264 83.8689 6.95197C83.5276 6.61064 82.9996 6.43997 82.2849 6.43997H79.0849V10.536H82.2849ZM92.3877 16.824C91.289 16.824 90.313 16.568 89.4597 16.056C88.617 15.544 87.961 14.84 87.4917 13.944C87.0224 13.0373 86.7877 12.0133 86.7877 10.872C86.7877 9.73064 87.0224 8.71198 87.4917 7.81598C87.961 6.90931 88.617 6.20531 89.4597 5.70397C90.313 5.19197 91.289 4.93598 92.3877 4.93598C93.4864 4.93598 94.457 5.19197 95.2997 5.70397C96.153 6.20531 96.8144 6.90931 97.2837 7.81598C97.753 8.71198 97.9877 9.73064 97.9877 10.872C97.9877 12.0133 97.753 13.0373 97.2837 13.944C96.8144 14.84 96.153 15.544 95.2997 16.056C94.457 16.568 93.4864 16.824 92.3877 16.824ZM88.2917 10.872C88.2917 11.736 88.4357 12.52 88.7237 13.224C89.0224 13.928 89.4757 14.4933 90.0837 14.92C90.7024 15.336 91.4704 15.544 92.3877 15.544C93.305 15.544 94.0677 15.336 94.6757 14.92C95.2944 14.4933 95.7477 13.928 96.0357 13.224C96.3344 12.52 96.4837 11.736 96.4837 10.872C96.4837 10.0186 96.3344 9.23998 96.0357 8.53598C95.7477 7.83197 95.2944 7.27197 94.6757 6.85598C94.0677 6.42931 93.305 6.21597 92.3877 6.21597C91.4704 6.21597 90.7024 6.42931 90.0837 6.85598C89.4757 7.27197 89.0224 7.83197 88.7237 8.53598C88.4357 9.23998 88.2917 10.0186 88.2917 10.872ZM99.7856 5.15998H107.706V6.43997H101.226V10.04H106.938V11.32H101.226V15.32H107.898V16.6H99.7856V5.15998ZM112.478 11.656H111.022V16.6H109.582V5.15998H111.022V10.376H112.51L116.734 5.15998H118.302L113.63 10.936L118.638 16.6H116.83L112.478 11.656ZM122.462 6.43997H118.654V5.15998H127.71V6.43997H123.902V16.6H122.462V6.43997Z" fill="#464441"/>
<path d="M35.84 2.80002H34L35.84 0.400024H38L35.84 2.80002Z" fill="#464441"/>
</svg>
