<svg width="16" height="16" viewBox="0 0 16 16" fill="none" xmlns="http://www.w3.org/2000/svg">
<g clip-path="url(#clip0_563_509)">
<path d="M12 10.6668C12.5304 10.6668 13.0391 10.8775 13.4142 11.2526C13.7893 11.6277 14 12.1364 14 12.6668C14 13.1973 13.7893 13.706 13.4142 14.081C13.0391 14.4561 12.5304 14.6668 12 14.6668C11.4696 14.6668 10.9609 14.4561 10.5858 14.081C10.2107 13.706 10 13.1973 10 12.6668C10 12.1364 10.2107 11.6277 10.5858 11.2526C10.9609 10.8775 11.4696 10.6668 12 10.6668ZM10.3333 2.66683C11.129 2.66683 11.892 2.9829 12.4547 3.54551C13.0173 4.10812 13.3333 4.87118 13.3333 5.66683C13.3333 6.46248 13.0173 7.22554 12.4547 7.78815C11.892 8.35076 11.129 8.66683 10.3333 8.66683H5.66667C5.22464 8.66683 4.80072 8.84242 4.48816 9.15498C4.17559 9.46755 4 9.89147 4 10.3335C4 10.7755 4.17559 11.1994 4.48816 11.512C4.80072 11.8246 5.22464 12.0002 5.66667 12.0002H8.66667C8.84348 12.0002 9.01305 12.0704 9.13807 12.1954C9.2631 12.3204 9.33333 12.49 9.33333 12.6668C9.33333 12.8436 9.2631 13.0132 9.13807 13.1382C9.01305 13.2633 8.84348 13.3335 8.66667 13.3335H5.66667C4.87102 13.3335 4.10796 13.0174 3.54535 12.4548C2.98274 11.8922 2.66667 11.1291 2.66667 10.3335C2.66667 9.53785 2.98274 8.77479 3.54535 8.21218C4.10796 7.64957 4.87102 7.3335 5.66667 7.3335H10.3333C10.7754 7.3335 11.1993 7.1579 11.5118 6.84534C11.8244 6.53278 12 6.10886 12 5.66683C12 5.2248 11.8244 4.80088 11.5118 4.48832C11.1993 4.17576 10.7754 4.00016 10.3333 4.00016H7.33333C7.15652 4.00016 6.98695 3.92992 6.86193 3.8049C6.7369 3.67988 6.66667 3.51031 6.66667 3.3335C6.66667 3.15669 6.7369 2.98712 6.86193 2.86209C6.98695 2.73707 7.15652 2.66683 7.33333 2.66683H10.3333ZM4 1.3335C4.53043 1.3335 5.03914 1.54421 5.41421 1.91928C5.78929 2.29436 6 2.80306 6 3.3335C6 3.86393 5.78929 4.37264 5.41421 4.74771C5.03914 5.12278 4.53043 5.3335 4 5.3335C3.46957 5.3335 2.96086 5.12278 2.58579 4.74771C2.21071 4.37264 2 3.86393 2 3.3335C2 2.80306 2.21071 2.29436 2.58579 1.91928C2.96086 1.54421 3.46957 1.3335 4 1.3335Z" fill="white"/>
</g>
<defs>
<clipPath id="clip0_563_509">
<rect width="16" height="16" fill="white"/>
</clipPath>
</defs>
</svg>
